<svg width="156" height="71" viewBox="0 0 156 71" fill="none" xmlns="http://www.w3.org/2000/svg">
<path d="M155.1 45.7C155.1 27.7 155.1 14.1 155.1 5.1C155.1 3.7 154.6 2.5 153.7 1.5C152.7 0.5 151.5 0.1 150.1 0.1C141.1 0.1 100.3 0.1 100.3 0.1C96.4 5.8 92.8 11.3 89.3 16.4C85.8 11.3 78.3 0.1 78.3 0.1H33L26.1 10.3C26.1 10.3 26.1 33.4 26.1 40.6C21.6 40.6 12.3 40.6 10.1 40.6C10.1 32.1 10.1 9.4 10.1 0H0C0 6.4 0 40.6 0 45.6C0 47 0.5 48.2 1.5 49.2C2.5 50.2 3.7 50.7 5.1 50.7C14.1 50.7 26.7 50.7 31.3 50.7C32.7 50.7 33.9 50.2 34.9 49.2C35.9 48.2 36.3 47 36.3 45.6C36.3 31.2 36.3 19.4 36.3 10.1C39.3 10.1 45.1 10.1 49.2 10.1C49.2 16.9 49.2 30.4 49.2 50.7C50.9 50.7 54.3 50.7 59.4 50.7C59.4 44 59.4 30.4 59.4 10.1C60.2 10.1 72.4 10.1 73 10.1C76 14.5 79.4 19.6 83.3 25.4C82.6 26.4 82 27.4 81.3 28.3C75.5 36.8 70.5 44.3 66.2 50.7H78.4C79.9 48.5 81.1 46.7 81.9 45.5C84.5 41.6 87 37.9 89.4 34.4C91.8 37.9 94.3 41.6 96.9 45.5C97.7 46.7 98.9 48.5 100.4 50.7H112.6C108.3 44.3 103.2 36.8 97.5 28.3C96.9 27.3 96.2 26.3 95.5 25.4C99.4 19.7 102.8 14.6 105.8 10.1C109.4 10.1 117.9 10.1 119 10.1C119 13.7 119 42.2 119 45.6C119 47 119.5 48.2 120.5 49.2C121.5 50.2 122.7 50.7 124.1 50.7C133.1 50.7 145.7 50.7 150.3 50.7C151.7 50.7 152.9 50.2 153.9 49.2C154.6 48.3 155.1 47.1 155.1 45.7ZM145 40.6C140.5 40.6 131.2 40.6 129 40.6C129 33.8 129 13.5 129 10.1C133.5 10.1 142.8 10.1 145 10.1C145 22.8 145 32.3 145 38.6C145 39.5 145 40.2 145 40.6Z" fill="white"/>
<mask id="mask0_5_38" style="mask-type:luminance" maskUnits="userSpaceOnUse" x="0" y="0" width="156" height="51">
<path d="M155.1 45.7C155.1 27.7 155.1 14.1 155.1 5.1C155.1 3.7 154.6 2.5 153.7 1.5C152.7 0.5 151.5 0.1 150.1 0.1C141.1 0.1 100.3 0.1 100.3 0.1C96.4 5.8 92.8 11.3 89.3 16.4C85.8 11.3 78.3 0.1 78.3 0.1H33L26.1 10.3C26.1 10.3 26.1 33.4 26.1 40.6C21.6 40.6 12.3 40.6 10.1 40.6C10.1 32.1 10.1 9.4 10.1 0H0C0 6.4 0 40.6 0 45.6C0 47 0.5 48.2 1.5 49.2C2.5 50.2 3.7 50.7 5.1 50.7C14.1 50.7 26.7 50.7 31.3 50.7C32.7 50.7 33.9 50.2 34.9 49.2C35.9 48.2 36.3 47 36.3 45.6C36.3 31.2 36.3 19.4 36.3 10.1C39.3 10.1 45.1 10.1 49.2 10.1C49.2 16.9 49.2 30.4 49.2 50.7C50.9 50.7 54.3 50.7 59.4 50.7C59.4 44 59.4 30.4 59.4 10.1C60.2 10.1 72.4 10.1 73 10.1C76 14.5 79.4 19.6 83.3 25.4C82.6 26.4 82 27.4 81.3 28.3C75.5 36.8 70.5 44.3 66.2 50.7H78.4C79.9 48.5 81.1 46.7 81.9 45.5C84.5 41.6 87 37.9 89.4 34.4C91.8 37.9 94.3 41.6 96.9 45.5C97.7 46.7 98.9 48.5 100.4 50.7H112.6C108.3 44.3 103.2 36.8 97.5 28.3C96.9 27.3 96.2 26.3 95.5 25.4C99.4 19.7 102.8 14.6 105.8 10.1C109.4 10.1 117.9 10.1 119 10.1C119 13.7 119 42.2 119 45.6C119 47 119.5 48.2 120.5 49.2C121.5 50.2 122.7 50.7 124.1 50.7C133.1 50.7 145.7 50.7 150.3 50.7C151.7 50.7 152.9 50.2 153.9 49.2C154.6 48.3 155.1 47.1 155.1 45.7ZM145 40.6C140.5 40.6 131.2 40.6 129 40.6C129 33.8 129 13.5 129 10.1C133.5 10.1 142.8 10.1 145 10.1C145 22.8 145 32.3 145 38.6C145 39.5 145 40.2 145 40.6Z" fill="white"/>
</mask>
<g mask="url(#mask0_5_38)">
<path d="M155.2 0H0V50.7H155.2V0Z" fill="white"/>
</g>
<path d="M59.5 70.9C59.5 65.9 59.5 62.5 59.5 60.9C52.1 60.9 7.4 60.9 0 60.9C0 65.9 0 69.2 0 70.9C13.2 70.9 52.9 70.9 59.5 70.9Z" fill="white"/>
<path d="M148.3 71C148.1 71 147.9 70.9 147.7 70.8C147.5 70.6 147.5 70.5 147.5 70.2V68.3H149.1V69.4H151.7V66.8H148.3C148.1 66.8 147.9 66.7 147.7 66.6C147.5 66.4 147.5 66.2 147.5 66V61.7C147.5 61.5 147.6 61.3 147.7 61.1C147.9 60.9 148 60.9 148.3 60.9H152.6C152.8 60.9 153 61 153.2 61.1C153.3 61.3 153.4 61.4 153.4 61.7V63.6H151.8V62.5H149.1V65.1H152.5C152.7 65.1 152.9 65.2 153.1 65.3C153.2 65.5 153.3 65.6 153.3 65.9V70.2C153.3 70.4 153.2 70.6 153.1 70.8C152.9 71 152.7 71 152.5 71H148.3ZM142.6 71V61.7C142.6 61.5 142.5 61.3 142.4 61.1C142.2 60.9 142 60.9 141.8 60.9H136.7V71H138.3V62.5H140.9V71H142.6ZM131.9 70.2V61.7C131.9 61.5 131.8 61.3 131.7 61.1C131.5 60.9 131.3 60.9 131.1 60.9H126.8C126.6 60.9 126.4 61 126.2 61.1C126 61.3 126 61.5 126 61.7V70.2C126 70.4 126.1 70.6 126.2 70.8C126.4 71 126.5 71 126.8 71H131.1C131.3 71 131.5 70.9 131.7 70.8C131.9 70.6 131.9 70.4 131.9 70.2ZM130.3 69.4H127.7V62.5H130.3V69.4ZM121.2 71V60.9H119.6V71H121.2ZM111 71V62.5H108.9V60.9H114.8V62.5H112.7V71H111ZM103.3 71C103.5 71 103.7 70.9 103.9 70.8C104.1 70.6 104.1 70.5 104.1 70.2V60.9H102.5V69.4H99.9V60.9H98.3V70.2C98.3 70.4 98.4 70.6 98.5 70.8C98.7 71 98.8 71 99.1 71H103.3ZM87.5 71V60.9H89.1V69.4H93.4V71H87.5ZM82.4 70.8C82.2 71 82 71 81.8 71H77.5C77.3 71 77.1 70.9 76.9 70.8C76.7 70.6 76.7 70.5 76.7 70.2V61.7C76.7 61.5 76.8 61.3 76.9 61.1C77.1 60.9 77.2 60.9 77.5 60.9H81.8C82 60.9 82.2 61 82.4 61.1C82.5 61.3 82.6 61.4 82.6 61.7V70.2C82.6 70.4 82.6 70.6 82.4 70.8ZM81 62.5H78.4V69.4H81V62.5ZM66.9 71C66.7 71 66.5 70.9 66.3 70.8C66.1 70.6 66.1 70.4 66.1 70.2V68.3H67.7V69.4H70.3V66.8H66.9C66.7 66.8 66.5 66.7 66.3 66.6C66.1 66.4 66.1 66.2 66.1 65.9V61.6C66.1 61.4 66.2 61.2 66.3 61C66.5 60.8 66.6 60.8 66.9 60.8H71.1C71.3 60.8 71.5 60.9 71.7 61C71.8 61.2 71.9 61.3 71.9 61.6V63.5H70.3V62.4H67.7V65H71.1C71.3 65 71.5 65.1 71.7 65.2C71.8 65.4 71.9 65.5 71.9 65.8V70.1C71.9 70.3 71.8 70.5 71.7 70.7C71.5 70.9 71.3 71 71.1 71H66.9Z" fill="white"/>
</svg>
