<svg width="156" height="71" fill="none" xmlns="http://www.w3.org/2000/svg"><path d="M155.1 45.7V5.1c0-1.4-.5-2.6-1.4-3.6-1-1-2.2-1.4-3.6-1.4h-49.8c-3.9 5.7-7.5 11.2-11 16.3-3.5-5.1-11-16.3-11-16.3H33l-6.9 10.2v30.3h-16V0H0v45.6c0 1.4.5 2.6 1.5 3.6s2.2 1.5 3.6 1.5h26.2c1.4 0 2.6-.5 3.6-1.5s1.4-2.2 1.4-3.6V10.1h12.9v40.6h10.2V10.1H73c3 4.4 6.4 9.5 10.3 15.3-.7 1-1.3 2-2 2.9-5.8 8.5-10.8 16-15.1 22.4h12.2c1.5-2.2 2.7-4 3.5-5.2 2.6-3.9 5.1-7.6 7.5-11.1 2.4 3.5 4.9 7.2 7.5 11.1.8 1.2 2 3 3.5 5.2h12.2c-4.3-6.4-9.4-13.9-15.1-22.4-.6-1-1.3-2-2-2.9 3.9-5.7 7.3-10.8 10.3-15.3H119v35.5c0 1.4.5 2.6 1.5 3.6s2.2 1.5 3.6 1.5h26.2c1.4 0 2.6-.5 3.6-1.5.7-.9 1.2-2.1 1.2-3.5ZM145 40.6h-16V10.1h16v30.5Z" fill="url(#a)"/><mask id="b" style="mask-type:luminance" maskUnits="userSpaceOnUse" x="0" y="0" width="156" height="51"><path d="M155.1 45.7V5.1c0-1.4-.5-2.6-1.4-3.6-1-1-2.2-1.4-3.6-1.4h-49.8c-3.9 5.7-7.5 11.2-11 16.3-3.5-5.1-11-16.3-11-16.3H33l-6.9 10.2v30.3h-16V0H0v45.6c0 1.4.5 2.6 1.5 3.6s2.2 1.5 3.6 1.5h26.2c1.4 0 2.6-.5 3.6-1.5s1.4-2.2 1.4-3.6V10.1h12.9v40.6h10.2V10.1H73c3 4.4 6.4 9.5 10.3 15.3-.7 1-1.3 2-2 2.9-5.8 8.5-10.8 16-15.1 22.4h12.2c1.5-2.2 2.7-4 3.5-5.2 2.6-3.9 5.1-7.6 7.5-11.1 2.4 3.5 4.9 7.2 7.5 11.1.8 1.2 2 3 3.5 5.2h12.2c-4.3-6.4-9.4-13.9-15.1-22.4-.6-1-1.3-2-2-2.9 3.9-5.7 7.3-10.8 10.3-15.3H119v35.5c0 1.4.5 2.6 1.5 3.6s2.2 1.5 3.6 1.5h26.2c1.4 0 2.6-.5 3.6-1.5.7-.9 1.2-2.1 1.2-3.5ZM145 40.6h-16V10.1h16v30.5Z" fill="#fff"/></mask><g mask="url(#b)"><path d="M155.2 0H0v50.7h155.2V0Z" fill="url(#c)"/></g><path d="M59.5 70.9v-10H0v10h59.5ZM148.3 71c-.2 0-.4-.1-.6-.2-.2-.2-.2-.3-.2-.6v-1.9h1.6v1.1h2.6v-2.6h-3.4c-.2 0-.4-.1-.6-.2-.2-.2-.2-.4-.2-.6v-4.3c0-.2.1-.4.2-.6.2-.2.3-.2.6-.2h4.3c.2 0 .4.1.6.2.1.2.2.3.2.6v1.9h-1.6v-1.1h-2.7v2.6h3.4c.2 0 .4.1.6.2.1.2.2.3.2.6v4.3c0 .2-.1.4-.2.6-.2.2-.4.2-.6.2h-4.2Zm-5.7 0v-9.3c0-.2-.1-.4-.2-.6-.2-.2-.4-.2-.6-.2h-5.1V71h1.6v-8.5h2.6V71h1.7Zm-10.7-.8v-8.5c0-.2-.1-.4-.2-.6-.2-.2-.4-.2-.6-.2h-4.3c-.2 0-.4.1-.6.2-.2.2-.2.4-.2.6v8.5c0 .2.1.4.2.6.2.2.3.2.6.2h4.3c.2 0 .4-.1.6-.2.2-.2.2-.4.2-.6Zm-1.6-.8h-2.6v-6.9h2.6v6.9Zm-9.1 1.6V60.9h-1.6V71h1.6ZM111 71v-8.5h-2.1v-1.6h5.9v1.6h-2.1V71H111Zm-7.7 0c.2 0 .4-.1.6-.2.2-.2.2-.3.2-.6v-9.3h-1.6v8.5h-2.6v-8.5h-1.6v9.3c0 .2.1.4.2.6.2.2.3.2.6.2h4.2Zm-15.8 0V60.9h1.6v8.5h4.3V71h-5.9Zm-5.1-.2c-.2.2-.4.2-.6.2h-4.3c-.2 0-.4-.1-.6-.2-.2-.2-.2-.3-.2-.6v-8.5c0-.2.1-.4.2-.6.2-.2.3-.2.6-.2h4.3c.2 0 .4.1.6.2.1.2.2.3.2.6v8.5c0 .2 0 .4-.2.6ZM81 62.5h-2.6v6.9H81v-6.9ZM66.9 71c-.2 0-.4-.1-.6-.2-.2-.2-.2-.4-.2-.6v-1.9h1.6v1.1h2.6v-2.6h-3.4c-.2 0-.4-.1-.6-.2-.2-.2-.2-.4-.2-.7v-4.3c0-.2.1-.4.2-.6.2-.2.3-.2.6-.2h4.2c.2 0 .4.1.6.2.1.2.2.3.2.6v1.9h-1.6v-1.1h-2.6V65h3.4c.2 0 .4.1.6.2.1.2.2.3.2.6v4.3c0 .2-.1.4-.2.6-.2.2-.4.3-.6.3h-4.2Z" fill="#283583"/><defs><linearGradient id="a" x1="0" y1="25.35" x2="155.1" y2="25.35" gradientUnits="userSpaceOnUse"><stop stop-color="#7AC5B9"/><stop offset="1" stop-color="#293784"/></linearGradient><linearGradient id="c" x1="0" y1="25.35" x2="155.2" y2="25.35" gradientUnits="userSpaceOnUse"><stop stop-color="#7AC5B9"/><stop offset="1" stop-color="#293784"/></linearGradient></defs></svg>
